<mxfile host="app.diagrams.net" modified="2021-05-03T08:55:52.922Z" agent="5.0 (Macintosh; Intel Mac OS X 10_13_6) AppleWebKit/605.1.15 (KHTML, like Gecko) Version/13.1.2 Safari/605.1.15" etag="MMT_ELiT8zz6TBAXVLkb" version="14.6.9" type="github" pages="2">
  <diagram id="ZqS-oZ4EtQNUb0h2oK1V" name="Page-1">
    <mxGraphModel dx="946" dy="662" grid="1" gridSize="10" guides="1" tooltips="1" connect="1" arrows="1" fold="1" page="1" pageScale="1" pageWidth="1100" pageHeight="1700" math="0" shadow="0">
      <root>
        <mxCell id="0" />
        <mxCell id="1" parent="0" />
        <mxCell id="joA3Ox-NP5H4RrqAylZS-3" style="edgeStyle=orthogonalEdgeStyle;rounded=0;orthogonalLoop=1;jettySize=auto;html=1;" edge="1" parent="1" source="joA3Ox-NP5H4RrqAylZS-2">
          <mxGeometry relative="1" as="geometry">
            <mxPoint x="260" y="334" as="targetPoint" />
          </mxGeometry>
        </mxCell>
        <mxCell id="joA3Ox-NP5H4RrqAylZS-2" value="" style="shape=image;html=1;verticalAlign=top;verticalLabelPosition=bottom;labelBackgroundColor=#ffffff;imageAspect=0;aspect=fixed;image=https://cdn0.iconfinder.com/data/icons/mozilla-icons/128/firefox_png.png" vertex="1" parent="1">
          <mxGeometry x="50" y="270" width="128" height="128" as="geometry" />
        </mxCell>
        <mxCell id="joA3Ox-NP5H4RrqAylZS-4" value="Todo Proxy&amp;nbsp;&lt;br&gt;Nginx" style="rounded=0;whiteSpace=wrap;html=1;" vertex="1" parent="1">
          <mxGeometry x="260" y="304" width="120" height="60" as="geometry" />
        </mxCell>
        <mxCell id="joA3Ox-NP5H4RrqAylZS-5" value="localhost:8080" style="text;html=1;align=center;verticalAlign=middle;resizable=0;points=[];autosize=1;strokeColor=none;" vertex="1" parent="1">
          <mxGeometry x="270" y="370" width="90" height="20" as="geometry" />
        </mxCell>
        <mxCell id="joA3Ox-NP5H4RrqAylZS-6" value="&lt;font color=&quot;#3399ff&quot;&gt;Stateless&lt;/font&gt;" style="text;html=1;align=center;verticalAlign=middle;resizable=0;points=[];autosize=1;strokeColor=none;" vertex="1" parent="1">
          <mxGeometry x="260" y="390" width="60" height="20" as="geometry" />
        </mxCell>
        <mxCell id="joA3Ox-NP5H4RrqAylZS-7" value="container-name --&amp;gt; to-do-proxy" style="text;html=1;align=center;verticalAlign=middle;resizable=0;points=[];autosize=1;strokeColor=none;" vertex="1" parent="1">
          <mxGeometry x="200" y="410" width="180" height="20" as="geometry" />
        </mxCell>
        <mxCell id="joA3Ox-NP5H4RrqAylZS-8" value="" style="endArrow=classic;html=1;" edge="1" parent="1">
          <mxGeometry relative="1" as="geometry">
            <mxPoint x="370" y="340" as="sourcePoint" />
            <mxPoint x="470" y="340" as="targetPoint" />
          </mxGeometry>
        </mxCell>
        <mxCell id="joA3Ox-NP5H4RrqAylZS-9" value="inside N/W" style="edgeLabel;resizable=0;html=1;align=center;verticalAlign=middle;" connectable="0" vertex="1" parent="joA3Ox-NP5H4RrqAylZS-8">
          <mxGeometry relative="1" as="geometry" />
        </mxCell>
        <mxCell id="joA3Ox-NP5H4RrqAylZS-11" value="" style="endArrow=none;html=1;exitX=0.5;exitY=0;exitDx=0;exitDy=0;" edge="1" parent="1" source="joA3Ox-NP5H4RrqAylZS-4">
          <mxGeometry width="50" height="50" relative="1" as="geometry">
            <mxPoint x="400" y="370" as="sourcePoint" />
            <mxPoint x="320" y="70" as="targetPoint" />
          </mxGeometry>
        </mxCell>
        <mxCell id="joA3Ox-NP5H4RrqAylZS-12" value="" style="endArrow=none;html=1;" edge="1" parent="1">
          <mxGeometry width="50" height="50" relative="1" as="geometry">
            <mxPoint x="320" y="70" as="sourcePoint" />
            <mxPoint x="1040" y="70" as="targetPoint" />
          </mxGeometry>
        </mxCell>
        <mxCell id="rU5UK0vA69QqC-EOJpqe-1" value="" style="endArrow=none;html=1;exitX=0.5;exitY=1;exitDx=0;exitDy=0;" edge="1" parent="1" source="joA3Ox-NP5H4RrqAylZS-4">
          <mxGeometry width="50" height="50" relative="1" as="geometry">
            <mxPoint x="470" y="330" as="sourcePoint" />
            <mxPoint x="320" y="640" as="targetPoint" />
          </mxGeometry>
        </mxCell>
        <mxCell id="rU5UK0vA69QqC-EOJpqe-2" value="" style="endArrow=none;html=1;" edge="1" parent="1">
          <mxGeometry width="50" height="50" relative="1" as="geometry">
            <mxPoint x="1040" y="70" as="sourcePoint" />
            <mxPoint x="1040" y="640" as="targetPoint" />
          </mxGeometry>
        </mxCell>
        <mxCell id="rU5UK0vA69QqC-EOJpqe-3" value="" style="endArrow=none;html=1;" edge="1" parent="1">
          <mxGeometry width="50" height="50" relative="1" as="geometry">
            <mxPoint x="320" y="640" as="sourcePoint" />
            <mxPoint x="1040" y="640" as="targetPoint" />
          </mxGeometry>
        </mxCell>
        <mxCell id="rU5UK0vA69QqC-EOJpqe-4" value="" style="endArrow=none;html=1;" edge="1" parent="1">
          <mxGeometry width="50" height="50" relative="1" as="geometry">
            <mxPoint x="470" y="340" as="sourcePoint" />
            <mxPoint x="530" y="340" as="targetPoint" />
          </mxGeometry>
        </mxCell>
        <mxCell id="rU5UK0vA69QqC-EOJpqe-5" value="" style="endArrow=none;html=1;" edge="1" parent="1">
          <mxGeometry width="50" height="50" relative="1" as="geometry">
            <mxPoint x="530" y="200" as="sourcePoint" />
            <mxPoint x="530" y="400" as="targetPoint" />
          </mxGeometry>
        </mxCell>
        <mxCell id="rU5UK0vA69QqC-EOJpqe-6" value="" style="endArrow=none;html=1;" edge="1" parent="1">
          <mxGeometry width="50" height="50" relative="1" as="geometry">
            <mxPoint x="530" y="399.5" as="sourcePoint" />
            <mxPoint x="640" y="399.5" as="targetPoint" />
          </mxGeometry>
        </mxCell>
        <mxCell id="rU5UK0vA69QqC-EOJpqe-7" value="" style="endArrow=none;html=1;" edge="1" parent="1">
          <mxGeometry width="50" height="50" relative="1" as="geometry">
            <mxPoint x="530" y="200" as="sourcePoint" />
            <mxPoint x="640" y="200" as="targetPoint" />
          </mxGeometry>
        </mxCell>
        <mxCell id="rU5UK0vA69QqC-EOJpqe-8" value="" style="whiteSpace=wrap;html=1;aspect=fixed;" vertex="1" parent="1">
          <mxGeometry x="640" y="140" width="120" height="120" as="geometry" />
        </mxCell>
        <mxCell id="rU5UK0vA69QqC-EOJpqe-9" value="" style="whiteSpace=wrap;html=1;aspect=fixed;" vertex="1" parent="1">
          <mxGeometry x="640" y="350" width="120" height="120" as="geometry" />
        </mxCell>
        <mxCell id="rU5UK0vA69QqC-EOJpqe-10" value="" style="endArrow=none;html=1;exitX=1;exitY=0.5;exitDx=0;exitDy=0;" edge="1" parent="1" source="rU5UK0vA69QqC-EOJpqe-9">
          <mxGeometry width="50" height="50" relative="1" as="geometry">
            <mxPoint x="770" y="390" as="sourcePoint" />
            <mxPoint x="840" y="410" as="targetPoint" />
          </mxGeometry>
        </mxCell>
        <mxCell id="rU5UK0vA69QqC-EOJpqe-11" value="" style="endArrow=none;html=1;" edge="1" parent="1">
          <mxGeometry width="50" height="50" relative="1" as="geometry">
            <mxPoint x="840" y="410" as="sourcePoint" />
            <mxPoint x="840" y="240" as="targetPoint" />
          </mxGeometry>
        </mxCell>
        <mxCell id="rU5UK0vA69QqC-EOJpqe-12" value="" style="endArrow=none;html=1;" edge="1" parent="1">
          <mxGeometry width="50" height="50" relative="1" as="geometry">
            <mxPoint x="840" y="480" as="sourcePoint" />
            <mxPoint x="840" y="400" as="targetPoint" />
          </mxGeometry>
        </mxCell>
        <mxCell id="rU5UK0vA69QqC-EOJpqe-13" value="" style="endArrow=none;html=1;" edge="1" parent="1">
          <mxGeometry width="50" height="50" relative="1" as="geometry">
            <mxPoint x="840" y="480" as="sourcePoint" />
            <mxPoint x="920" y="480" as="targetPoint" />
          </mxGeometry>
        </mxCell>
        <mxCell id="rU5UK0vA69QqC-EOJpqe-14" value="" style="endArrow=none;html=1;" edge="1" parent="1">
          <mxGeometry width="50" height="50" relative="1" as="geometry">
            <mxPoint x="840" y="240" as="sourcePoint" />
            <mxPoint x="920" y="240" as="targetPoint" />
          </mxGeometry>
        </mxCell>
        <mxCell id="rU5UK0vA69QqC-EOJpqe-15" value="" style="whiteSpace=wrap;html=1;aspect=fixed;" vertex="1" parent="1">
          <mxGeometry x="920" y="200" width="110" height="110" as="geometry" />
        </mxCell>
        <mxCell id="rU5UK0vA69QqC-EOJpqe-16" value="" style="whiteSpace=wrap;html=1;aspect=fixed;" vertex="1" parent="1">
          <mxGeometry x="920" y="390" width="110" height="110" as="geometry" />
        </mxCell>
      </root>
    </mxGraphModel>
  </diagram>
  <diagram id="1gP-O8iEektBtVDVTav-" name="Page-2">
    <mxGraphModel dx="946" dy="662" grid="1" gridSize="10" guides="1" tooltips="1" connect="1" arrows="1" fold="1" page="1" pageScale="1" pageWidth="850" pageHeight="1100" math="0" shadow="0">
      <root>
        <mxCell id="9LSiy6vInRAD4gyWohKL-0" />
        <mxCell id="9LSiy6vInRAD4gyWohKL-1" parent="9LSiy6vInRAD4gyWohKL-0" />
      </root>
    </mxGraphModel>
  </diagram>
</mxfile>
